HIERARCHY
ROOT Hips
{
 OFFSET 0.000000 0.000000 0.000000
 CHANNELS 6 Xposition Yposition Zposition Yrotation Xrotation Zrotation
 JOINT Chest
 {
  OFFSET 0.000000 13.173100 -0.061900
  CHANNELS 3 Yrotation Xrotation Zrotation
  JOINT Chest2
  {
   OFFSET 0.000000 8.040800 0.126200
   CHANNELS 3 Yrotation Xrotation Zrotation
   JOINT Chest3
   {
    OFFSET 0.000000 7.994400 0.000000
    CHANNELS 3 Yrotation Xrotation Zrotation
    JOINT Chest4
    {
     OFFSET 0.000000 7.986200 0.000000
     CHANNELS 3 Yrotation Xrotation Zrotation
     JOINT Neck
     {
      OFFSET 0.000000 12.259400 0.000000
      CHANNELS 3 Yrotation Xrotation Zrotation
      JOINT Head
      {
       OFFSET 0.000000 7.518700 0.267100
       CHANNELS 3 Yrotation Xrotation Zrotation
       End Site
       {
        OFFSET 0.000000 13.617700 0.141000
       }
      }
     }
     JOINT RightCollar
     {
      OFFSET -2.983800 8.314300 0.000000
      CHANNELS 3 Yrotation Xrotation Zrotation
      JOINT RightShoulder
      {
       OFFSET -16.133400 0.000000 0.000000
       CHANNELS 3 Yrotation Xrotation Zrotation
       JOINT RightElbow
       {
        OFFSET 0.000000 -29.822100 0.000000
        CHANNELS 3 Yrotation Xrotation Zrotation
        JOINT RightWrist
        {
         OFFSET 0.000000 -24.437700 0.010900
         CHANNELS 3 Yrotation Xrotation Zrotation
         End Site
         {
          OFFSET 0.000000 -18.312300 0.000000
         }
        }
       }
      }
     }
     JOINT LeftCollar
     {
      OFFSET 2.983800 8.314300 0.000000
      CHANNELS 3 Yrotation Xrotation Zrotation
      JOINT LeftShoulder
      {
       OFFSET 16.133400 0.000000 0.000000
       CHANNELS 3 Yrotation Xrotation Zrotation
       JOINT LeftElbow
       {
        OFFSET 0.000000 -29.822100 0.000000
        CHANNELS 3 Yrotation Xrotation Zrotation
        JOINT LeftWrist
        {
         OFFSET 0.000000 -24.437700 0.010900
         CHANNELS 3 Yrotation Xrotation Zrotation
         End Site
         {
          OFFSET 0.000000 -18.312300 0.000000
         }
        }
       }
      }
     }
    }
   }
  }
 }
 JOINT RightHip
 {
  OFFSET -11.206700 0.306200 0.030900
  CHANNELS 3 Yrotation Xrotation Zrotation
  JOINT RightKnee
  {
   OFFSET 0.000000 -57.334900 0.009400
   CHANNELS 3 Yrotation Xrotation Zrotation
   JOINT RightAnkle
   {
    OFFSET 0.000000 -43.376200 0.036600
    CHANNELS 3 Yrotation Xrotation Zrotation
    JOINT RightToe
    {
     OFFSET 0.000000 -10.035500 18.363100
     CHANNELS 3 Yrotation Xrotation Zrotation
     End Site
     {
      OFFSET 0.000000 -1.618500 7.239000
     }
    }
   }
  }
 }
 JOINT LeftHip
 {
  OFFSET 11.206700 0.306200 0.030900
  CHANNELS 3 Yrotation Xrotation Zrotation
  JOINT LeftKnee
  {
   OFFSET 0.000000 -57.334900 0.009400
   CHANNELS 3 Yrotation Xrotation Zrotation
   JOINT LeftAnkle
   {
    OFFSET 0.000000 -43.376200 0.036600
    CHANNELS 3 Yrotation Xrotation Zrotation
    JOINT LeftToe
    {
     OFFSET 0.000000 -10.035500 18.363100
     CHANNELS 3 Yrotation Xrotation Zrotation
     End Site
     {
      OFFSET 0.000000 -1.618500 7.239000
     }
    }
   }
  }
 }
}
MOTION
Frames: 14
Frame Time: 0.008333
-96.977978 65.401240 84.986754 172.717193 -35.864746 -1.986513 2.648175 20.135189 1.782401 0.350483 2.601599 0.320430 0.598084 4.310610 0.566460 2.769947 17.463865 2.666647 -0.224176 14.284228 -2.167013 0.402075 -9.282280 -4.012840 -4.979977 1.604042 -4.581016 -5.076006 -4.333546 5.175055 135.084647 -80.798777 -125.180021 8.147808 6.508341 19.161290 -1.971099 0.756344 0.994728 7.595400 -0.761694 2.163079 165.481503 -78.259746 178.520539 -8.631082 -5.000370 4.245862 -2.592237 -45.070172 3.875704 -108.414787 86.210506 -103.186974 -0.328567 -9.298299 -3.724321 0.495756 -0.144269 0.227965 -3.642950 -41.692420 3.858413 78.498714 82.441549 69.058848 -4.931099 -12.419277 6.957105 0.421853 1.321353 0.362051
-96.989077 65.365009 85.003593 172.754846 -35.841230 -1.957328 2.609530 20.146583 1.750448 0.358386 2.638708 0.343279 0.594871 4.314279 0.570479 2.743106 17.414054 2.634267 -0.248561 14.253627 -2.169605 0.354220 -9.371117 -4.027478 -4.983119 1.611011 -4.574631 -5.081919 -4.353438 5.138904 134.982156 -80.808199 -125.081650 8.214095 6.652676 19.332472 -2.011466 0.793872 0.993986 7.666637 -0.847957 2.120357 166.329429 -78.139144 177.726977 -8.938585 -3.672326 2.737150 -2.582646 -45.096773 3.812879 -108.427555 86.211663 -103.202126 -0.357229 -9.300184 -3.736385 0.523536 -0.150047 0.245833 -3.547658 -41.727624 3.745556 78.418558 82.361705 69.018331 -4.994429 -12.394219 6.963709 0.426492 1.321515 0.344006
-97.001553 65.332224 85.020127 172.791634 -35.817405 -1.928815 2.571833 20.154190 1.719921 0.356965 2.639908 0.343908 0.592562 4.316181 0.571420 2.741389 17.454068 2.663839 -0.284419 14.175331 -2.203543 0.314317 -9.449272 -4.035060 -4.990323 1.561962 -4.598408 -5.086908 -4.372595 5.103486 134.851010 -80.880770 -124.957199 8.304795 6.768159 19.493578 -2.038828 0.751258 0.954047 7.703880 -0.895192 2.102086 167.375771 -77.992065 176.767500 -9.255299 -2.357233 1.069426 -2.570123 -45.121026 3.740429 -108.437554 86.213419 -103.211263 -0.364026 -9.306209 -3.736920 0.538728 -0.151952 0.249089 -3.404768 -41.763348 3.598319 78.317980 82.267233 68.992499 -5.052738 -12.364471 6.953106 0.450491 1.309702 0.313101
-97.015650 65.301713 85.037408 172.830744 -35.786153 -1.902049 2.525825 20.139692 1.677555 0.356172 2.640479 0.344134 0.593107 4.331998 0.581238 2.728147 17.458113 2.663345 -0.301482 14.137570 -2.208438 0.285221 -9.519875 -4.038435 -4.984741 1.561825 -4.584082 -5.094863 -4.400072 4.995095 135.141641 -80.996987 -125.252420 8.398450 6.917638 19.668387 -2.053985 0.749107 0.938188 7.744331 -0.947392 2.087455 168.747079 -77.819136 175.507655 -9.587280 -1.122846 -0.760397 -2.554909 -45.153399 3.660649 -108.429331 86.208423 -103.200390 -0.350781 -9.308651 -3.730860 0.548351 -0.162380 0.252405 -3.224376 -41.808214 3.422168 78.194945 82.164141 68.973532 -5.091303 -12.329548 6.902197 0.423173 1.303395 0.344107
-97.027737 65.275909 85.052237 172.855099 -35.766526 -1.878961 2.495988 20.135820 1.648164 0.355223 2.640878 0.344208 0.591857 4.348080 0.589330 2.714224 17.454083 2.657105 -0.313937 14.109344 -2.205939 0.267260 -9.586940 -4.036922 -4.976345 1.543349 -4.589694 -5.101336 -4.407398 4.969712 135.207444 -81.058908 -125.318420 8.481654 7.114594 19.865606 -2.113093 0.831884 0.935317 7.859089 -1.106169 2.053939 170.480367 -77.637785 173.886652 -9.964722 -0.047244 -2.716205 -2.537713 -45.171457 3.601573 -108.282883 86.189857 -103.051797 -0.336351 -9.307047 -3.721485 0.556096 -0.183239 0.266072 -3.142930 -41.831806 3.330594 78.143964 82.064163 68.952385 -5.149167 -12.293680 6.883570 0.420367 1.296092 0.344962
-97.027899 65.261616 85.056347 172.818390 -35.810055 -1.867127 2.539835 20.205860 1.681438 0.352691 2.641909 0.344108 0.586170 4.334114 0.579451 2.708061 17.448063 2.651839 -0.319825 14.099311 -2.201845 0.247456 -9.653572 -4.017277 -4.971534 1.541421 -4.586058 -5.109937 -4.413860 4.944235 135.296576 -81.088919 -125.403147 8.551231 7.358043 20.084903 -2.160799 0.904768 0.933270 7.967655 -1.249488 2.034976 172.615044 -77.407873 171.866319 -10.426378 0.800633 -4.719713 -2.506926 -45.125823 3.590541 -108.166654 86.176699 -102.924930 -0.281083 -9.278058 -3.678839 0.531672 -0.210152 0.216888 -3.049862 -41.790913 3.297655 78.053787 82.014442 68.901499 -5.139696 -12.227366 6.882564 0.389250 1.245368 0.329224
-97.034619 65.244741 85.065220 172.821180 -35.815834 -1.849709 2.538323 20.241707 1.681603 0.350121 2.642080 0.343206 0.581341 4.319529 0.570258 2.693954 17.464971 2.652988 -0.318540 14.066585 -2.206418 0.232217 -9.717462 -3.990334 -4.956600 1.521651 -4.587283 -5.146079 -4.445313 4.879152 135.463213 -81.210554 -125.543612 8.682662 7.589797 20.321416 -2.195985 0.938330 0.919706 8.083568 -1.382033 2.037040 175.036602 -77.088587 169.544052 -10.981744 1.408623 -6.706702 -2.484572 -45.114684 3.532087 -108.099627 86.174290 -102.844588 -0.220730 -9.267085 -3.658126 0.493421 -0.229712 0.194935 -2.915655 -41.788177 3.201731 77.913373 81.970714 68.835358 -5.170795 -12.187104 6.869489 0.400548 1.224333 0.336798
-97.049897 65.221723 85.082443 172.877927 -35.761489 -1.823597 2.488201 20.230382 1.652136 0.336580 2.624983 0.328949 0.576503 4.319950 0.568064 2.670457 17.476737 2.643446 -0.317307 14.026275 -2.199782 0.227361 -9.771956 -3.965614 -4.932721 1.499229 -4.584895 -5.169988 -4.473857 4.845717 135.494135 -81.293779 -125.565428 8.852316 7.849113 20.580128 -2.232647 0.972014 0.908472 8.271066 -1.567699 2.081008 177.494159 -76.696519 167.111375 -11.581913 1.815113 -8.654456 -2.485454 -45.162331 3.449904 -108.004609 86.170700 -102.756172 -0.218365 -9.282807 -3.646681 0.496262 -0.226581 0.198790 -2.817879 -41.843392 3.077554 77.782003 81.838496 68.738300 -5.287658 -12.123396 6.858929 0.414939 1.215798 0.344970
-97.054774 65.204144 85.094125 172.915763 -35.736379 -1.815878 2.455218 20.218402 1.631054 0.334881 2.632127 0.333450 0.581094 4.327065 0.571047 2.649992 17.460739 2.628376 -0.323091 14.007157 -2.184478 0.217488 -9.818066 -3.931046 -4.930484 1.499506 -4.584764 -5.187270 -4.501275 4.821891 135.491808 -81.349185 -125.568170 9.062039 8.139476 20.871245 -2.290236 1.032708 0.904865 8.436330 -1.720753 2.138768 -179.856830 -76.164008 164.498936 -12.151311 2.064778 -10.548473 -2.498665 -45.178338 3.415992 -107.855517 86.162505 -102.613771 -0.213490 -9.285884 -3.637385 0.494120 -0.235428 0.203607 -2.714697 -41.867865 3.005191 77.566452 81.793342 68.572000 -5.376672 -12.066779 6.819850 0.448785 1.201767 0.386669
-97.051017 65.191749 85.099071 172.924945 -35.744889 -1.809730 2.447602 20.230702 1.622903 0.350925 2.646439 0.345171 0.563874 4.312694 0.559677 2.630172 17.461168 2.609056 -0.322244 13.968751 -2.139891 0.225095 -9.835388 -3.905427 -4.928026 1.510412 -4.581965 -5.193806 -4.532713 4.814166 135.386276 -81.337323 -125.513718 9.291658 8.468576 21.237892 -2.320828 1.082604 0.916997 8.569344 -1.841090 2.216452 -177.278405 -75.547596 161.947426 -12.647163 2.215913 -12.379456 -2.497184 -45.162312 3.406940 -107.738466 86.148119 -102.502512 -0.196859 -9.278673 -3.622309 0.480083 -0.255207 0.203826 -2.681035 -41.854868 2.991077 77.426076 81.784796 68.441129 -5.409314 -12.027206 6.817859 0.485058 1.186975 0.374383
-97.047682 65.182351 85.097696 172.951798 -35.776499 -1.792684 2.426023 20.274271 1.601588 0.346448 2.639243 0.340190 0.559678 4.311162 0.558036 2.615287 17.450689 2.594811 -0.317441 13.955028 -2.114015 0.224442 -9.861384 -3.858802 -4.920686 1.522043 -4.579328 -5.209684 -4.556009 4.806890 135.343962 -81.296189 -125.509540 9.583135 8.852068 21.644058 -2.371412 1.155772 0.918856 8.721882 -1.975952 2.322523 -175.135462 -74.909974 159.786093 -13.075297 2.356249 -14.179261 -2.493435 -45.122758 3.381044 -107.840938 86.133333 -102.624023 -0.200517 -9.291010 -3.604619 0.474948 -0.271897 0.210740 -2.655450 -41.821241 2.950506 77.317112 81.773385 68.331908 -5.416517 -11.975089 6.794636 0.500151 1.159167 0.378864
-97.046189 65.166253 85.102704 172.986406 -35.763058 -1.760936 2.388736 20.269265 1.555003 0.338344 2.634206 0.335387 0.565700 4.302823 0.558881 2.594148 17.447029 2.581449 -0.312318 13.943125 -2.087746 0.224230 -9.884037 -3.811539 -4.914503 1.533912 -4.578249 -5.227667 -4.583481 4.804382 135.313579 -81.270905 -125.496310 9.961148 9.272535 22.110391 -2.435417 1.239053 0.915238 8.893258 -2.128717 2.451603 -173.684049 -74.298058 158.260273 -13.471347 2.584721 -16.011735 -2.472482 -45.139619 3.331040 -108.007805 86.122342 -102.804678 -0.226138 -9.292903 -3.597375 0.484589 -0.292339 0.228761 -2.633819 -41.835984 2.887258 77.207713 81.738493 68.207795 -5.414130 -11.921501 6.776616 0.482528 1.141329 0.380423
-97.041714 65.145578 85.111839 173.025327 -35.721100 -1.735348 2.350527 20.232833 1.514025 0.335333 2.630565 0.333411 0.557041 4.302135 0.554043 2.586214 17.443136 2.574948 -0.309762 13.937309 -2.074656 0.220591 -9.914390 -3.754580 -4.917208 1.539179 -4.591990 -5.233148 -4.597562 4.817494 135.556297 -81.217186 -125.787161 10.418372 9.774814 22.721071 -2.458149 1.269921 0.913865 9.023326 -2.249632 2.593950 -173.053004 -73.753094 157.487463 -13.866967 2.973502 -17.924931 -2.457595 -45.190431 3.295098 -108.092010 86.094240 -102.898714 -0.256667 -9.285217 -3.603072 0.511885 -0.316305 0.257920 -2.617422 -41.877745 2.847824 77.054934 81.714630 68.026268 -5.452565 -11.874769 6.803205 0.478239 1.139775 0.361027
-97.032090 65.129059 85.113681 173.045022 -35.714623 -1.709935 2.334171 20.231780 1.490253 0.332539 2.627829 0.331099 0.552454 4.297793 0.550279 2.572750 17.442441 2.564553 -0.308821 13.922281 -2.048113 0.228658 -9.929267 -3.711571 -4.928581 1.544537 -4.601686 -5.263774 -4.635955 4.816712 136.114723 -81.187228 -126.384879 10.958925 10.366925 23.516105 -2.478644 1.296851 0.912318 9.158030 -2.383453 2.738212 -173.239989 -73.310168 157.455388 -14.276114 3.554939 -19.930334 -2.407534 -45.225494 3.290492 -108.355520 86.048974 -103.176649 -0.353145 -9.231224 -3.592670 0.590546 -0.393026 0.302753 -2.608215 -41.884600 2.843751 76.943560 81.734787 67.889909 -5.502130 -11.833512 6.801265 0.522177 1.140535 0.346763
